<svg width="48" height="48" viewBox="0 0 48 48" fill="none" xmlns="http://www.w3.org/2000/svg">
<g clip-path="url(#clip0_108_197)">
<path d="M24 48C37.256 48 48 38.1744 48 26.0566C48 18.5413 43.886 11.9049 37.562 7.96829C34.99 6.34881 32.968 4.89468 31.284 3.68743C28.116 1.40657 26.16 0 24 0C21.806 0 19.332 1.77803 16.068 4.12457C14.2284 5.4755 12.3501 6.75743 10.436 7.96829C4.114 11.9049 0 18.5413 0 26.0566C0 38.1744 10.744 47.9977 24 47.9977V48ZM21.198 7.49943C21.866 5.78029 22.204 3.92072 22.194 2.04303C22.194 1.71461 22.598 1.61948 22.654 1.97735C23.97 8.28086 20.85 11.4043 18.54 12.4507C18.292 12.5595 18.142 12.1767 18.334 11.9773C19.5601 10.7334 20.5366 9.20656 21.198 7.49943ZM25.314 7.2684C25.1237 5.42195 24.5907 3.64197 23.75 2.0453V2.00906C23.612 1.73046 23.922 1.41336 24.12 1.61948C28.044 6.40091 26.734 10.8313 25.232 13.06C25.068 13.2933 24.772 13.0532 24.854 12.7746C25.3476 10.9963 25.5044 9.12002 25.314 7.2684ZM28.866 5.99773C28.061 4.38962 26.9618 2.99493 25.642 1.90713V1.87542C25.418 1.6829 25.594 1.25481 25.87 1.38165C31.06 3.84371 31.418 8.58437 30.788 11.3635C30.7748 11.4294 30.7397 11.487 30.69 11.5243C30.6425 11.5623 30.5836 11.5775 30.5263 11.5664C30.4689 11.5554 30.4178 11.5191 30.384 11.4655C30.3497 11.4109 30.3341 11.3441 30.34 11.2775C30.1801 9.42019 29.6779 7.62155 28.866 5.99773ZM18.692 7.2684C17.458 8.5051 16.128 8.98981 14.566 9.53341C14.332 9.53341 14.176 9.35674 14.254 9.12344C17.758 7.06455 19.006 5.38845 20.252 2.83126C20.252 2.83126 20.562 2.56399 20.628 3.02378C20.628 3.71234 19.93 6.03397 18.692 7.2684ZM28.582 32.7203C28.2981 34.0862 27.6426 35.3166 26.708 36.2378C26.016 37.0215 25.108 37.5176 24.136 37.6421C23.1347 37.5351 22.197 37.0389 21.482 36.2378C20.556 35.3129 19.9091 34.0829 19.632 32.7203C19.6228 32.6395 19.6295 32.5573 19.6517 32.4798C19.6738 32.4023 19.7108 32.3312 19.76 32.2718C19.8097 32.2143 19.8702 32.1703 19.9371 32.1432C20.004 32.1162 20.0754 32.1067 20.146 32.1155H28.076C28.1459 32.1067 28.2166 32.1164 28.2826 32.1439C28.3485 32.1714 28.4079 32.216 28.456 32.2741C28.556 32.3941 28.602 32.5572 28.582 32.7203ZM17.666 27.7916C16.9407 28.3496 16.0649 28.5999 15.1927 28.4983C14.3205 28.3968 13.5079 27.9501 12.898 27.2367C12.2803 26.5074 11.8982 25.5633 11.8136 24.5573C11.729 23.5513 11.9469 22.5424 12.432 21.6942C12.846 20.9717 13.438 20.4122 14.128 20.0793C14.8167 19.7465 15.5786 19.6596 16.312 19.8301C17.044 20 17.718 20.4213 18.246 21.0328C18.7754 21.6567 19.1341 22.4408 19.2789 23.2904C19.4237 24.14 19.3484 25.0189 19.062 25.8211C18.7776 26.6183 18.2921 27.3052 17.666 27.7916ZM34.656 27.8029C33.9297 28.3577 33.0539 28.6044 32.1828 28.4996C31.3116 28.3948 30.5011 27.9451 29.894 27.2299C29.1891 26.3981 28.7969 25.2888 28.8 24.1359C28.8 23.2661 29.02 22.4145 29.44 21.692C29.854 20.9694 30.446 20.4077 31.138 20.077C31.8278 19.7459 32.5903 19.6606 33.324 19.8324C34.058 20.0045 34.732 20.4258 35.26 21.0419C35.7879 21.6684 36.1443 22.4545 36.2863 23.3054C36.4282 24.1563 36.3497 25.0355 36.06 25.8369C35.773 26.6344 35.2846 27.3183 34.656 27.8029Z" fill="#FFD494"/>
</g>
<defs>
<clipPath id="clip0_108_197">
<rect width="48" height="48" fill="white"/>
</clipPath>
</defs>
</svg>
