<svg width="48" height="48" viewBox="0 0 48 48" fill="none" xmlns="http://www.w3.org/2000/svg">
<g clip-path="url(#clip0_108_199)">
<path fill-rule="evenodd" clip-rule="evenodd" d="M39.7879 44.139C44.8208 39.7396 48 33.2723 48 26.0625C48 12.8077 37.2548 2.0625 24 2.0625C10.7452 2.0625 0 12.8077 0 26.0625C0 33.0617 2.99609 39.361 7.77571 43.7481L7.79782 43.5938L39.2948 33.2812L39.7879 44.139Z" fill="#333333"/>
<path d="M17.8045 4.94454L13.5469 4.31255L14.1847 4.11632C14.5689 3.99806 14.9295 3.81304 15.2496 3.56972L15.3497 3.49368C15.7355 3.20044 16.0425 2.81596 16.243 2.37477C16.3513 2.13645 16.4272 1.88468 16.4686 1.62618L16.5162 1.32847C16.5675 1.00761 16.5649 0.680431 16.5084 0.360438C16.4844 0.224513 16.6199 0.115585 16.7475 0.168138L16.9217 0.239875C17.1402 0.329859 17.3516 0.436393 17.5539 0.558547L18.278 0.99572C19.2402 1.57668 20.0837 2.33464 20.7637 3.22952L21.2452 3.86303C21.4246 4.09906 21.6359 4.30903 21.8731 4.48691C22.1333 4.68203 22.4216 4.83637 22.7283 4.94459L23.0625 5.06255L21.3069 5.13277C20.1361 5.1796 18.9636 5.11659 17.8045 4.94454Z" fill="#CCCCCC"/>
<path d="M16.7178 8.71928L17.9805 6.41101C17.9928 6.38837 17.9936 6.36117 17.9825 6.33786L17.552 5.43148C17.2818 4.86253 16.7082 4.49997 16.0783 4.49997L15.9592 4.49586C15.1349 4.46744 14.3162 4.34836 13.5178 4.14081L13.3599 4.09975C12.7053 3.92953 12.0701 3.69121 11.4651 3.38868L11.1982 3.25525C10.7963 3.05431 10.4157 2.81359 10.0619 2.53669L9.70797 2.25975C9.60278 2.17745 9.45044 2.19846 9.37147 2.30614C9.12814 2.63794 8.97559 3.02748 8.92886 3.43629L8.86455 3.99907C8.83004 4.30097 8.82622 4.6056 8.85312 4.90827L9.00982 6.67117C9.12641 7.98279 9.57906 9.24222 10.3242 10.3279L10.4838 10.5604C10.7127 10.894 10.9795 11.1999 11.2788 11.4721C11.321 11.5104 11.3748 11.534 11.4317 11.5391C13.5966 11.7333 15.6746 10.6263 16.7178 8.71928Z" fill="#CCCCCC"/>
<path d="M11.9415 11.5817L13.4414 10.9325C14.1034 10.646 14.305 9.80414 13.8445 9.24879C13.4701 8.79734 12.8042 8.72633 12.3431 9.08867L11.9874 9.36807C11.9022 9.43505 11.8243 9.5108 11.7549 9.59405L10.8995 10.6204C10.7794 10.7646 10.789 10.9767 10.9217 11.1094L11.1859 11.4114C11.2283 11.4598 11.2776 11.5018 11.3322 11.5359C11.5154 11.6505 11.7433 11.6675 11.9415 11.5817Z" fill="#EDEDED"/>
<path d="M13.8739 4.2041L13.8281 4.21875L13.9652 4.26235C14.5588 4.45123 15.1745 4.56188 15.7967 4.59151C15.8278 4.59299 15.859 4.58938 15.889 4.5808L16.1719 4.5L16.3125 4.45312L15.4143 4.25786C15.2961 4.23217 15.1858 4.17832 15.0929 4.10087C15.0204 4.04045 15.0209 3.92891 15.0939 3.86914L15.2272 3.76016C15.3863 3.62997 15.515 3.4665 15.6041 3.28125C15.0876 3.69039 14.5014 4.00301 13.8739 4.2041Z" fill="#B2B2B2"/>
<path d="M19.0102 20.5714L6.77714 42.44C6.71643 42.5486 6.56884 42.569 6.48091 42.4811L6.23428 42.2344L5.20303 41.0625L4.54573 40.2119C3.92247 39.4053 3.36601 38.5493 2.88191 37.6523L2.78835 37.4789C2.2741 36.5261 1.84336 35.5304 1.50095 34.5032L1.17178 33.5157C0.677264 31.7231 0.563759 29.8467 0.838574 28.0076L0.850178 27.9299C0.97059 27.1241 1.16272 26.3307 1.42429 25.559L1.96865 23.9532L2.37491 23.0986C3.00494 21.7734 3.87359 20.5755 4.93742 19.5648L5.45352 19.0746C6.52049 18.061 7.81806 17.3221 9.23428 16.9219C8.90306 17.0155 8.56498 17.0828 8.22317 17.1232L7.54678 17.2032L7.03115 17.25L6.46865 17.3438L5.90615 17.3964L5.53115 17.4375L5.26102 17.4544C5.17422 17.4598 5.13343 17.3491 5.20301 17.2969L5.58059 17.116C6.7974 16.5329 7.79771 15.5787 8.4374 14.3907L8.85435 13.7402C9.35157 12.9645 10.0131 12.3075 10.792 11.8155L10.953 11.7139C11.2438 11.5302 11.5542 11.3798 11.8785 11.2653L13.3542 10.7444C13.6263 10.6484 13.8458 10.4428 13.9596 10.1776L13.9821 10.125C14.0347 10.0019 14.056 9.86768 14.0439 9.73437C14.0257 9.53337 13.9327 9.34658 13.7833 9.21082L13.5239 8.97498C13.508 8.96046 13.4933 8.94446 13.4804 8.9272L11.8124 6.70315L10.4814 4.8686C10.2181 4.50558 10.0648 4.07439 10.04 3.62658C10.0359 3.55562 10.1095 3.50642 10.1737 3.53717L11.6137 4.22841C12.86 4.82659 14.2808 4.95237 15.6127 4.5824C15.9224 4.49639 16.2387 4.43667 16.5584 4.40389L17.2194 4.33609C18.8817 4.1656 20.5612 4.30366 22.1733 4.74334L22.3124 4.78128L23.8872 5.3482C25.8626 6.05936 27.4281 7.59913 28.1718 9.56253L28.502 10.8501C28.594 11.2094 28.7241 11.558 28.8901 11.8898C29.28 12.6696 29.8588 13.3396 30.5737 13.8387L31.414 14.4253C31.7833 14.6832 32.1709 14.9136 32.5736 15.1151L34.4332 16.0449C34.5166 16.0865 34.5415 16.1937 34.4852 16.2678C33.9723 16.9426 33.295 17.4746 32.5179 17.813L31.4409 18.282C31.0121 18.4688 30.57 18.6235 30.1182 18.7449L29.327 18.9574C28.2179 19.2553 27.0745 19.4063 25.9261 19.4063H24.0311C23.6388 19.4063 23.25 19.3325 22.885 19.1887C21.4294 18.6152 19.7739 19.2059 19.0102 20.5714Z" fill="white"/>
<path d="M25.4234 12.6859L26.2486 12.6954C26.3606 12.6967 26.3859 12.5389 26.279 12.5051C26.1036 12.4497 25.9332 12.3795 25.7697 12.2953L25.1255 11.9634C24.6888 11.7385 24.2781 11.4664 23.9008 11.1518L23.774 11.0463C23.4879 10.8078 23.2282 10.5392 22.9995 10.2452L22.853 10.0568C22.803 9.99242 22.6998 10.0317 22.7053 10.1131C22.8009 11.5487 23.9847 12.6692 25.4234 12.6859Z" fill="#666666"/>
<path d="M7.70827 42.787L21.6854 30.3187C23.003 29.1434 24.148 27.7877 25.0864 26.2921L25.1717 26.1562C25.6315 25.2367 25.8277 24.2078 25.7386 23.1837L25.6161 21.7741C25.5407 20.907 25.1828 20.0887 24.5973 19.4446C24.5746 19.4197 24.5445 19.4025 24.5114 19.3958L22.2655 18.9374C20.6358 18.4454 18.9081 18.3745 17.2436 18.7312L17.1561 18.7499L15.8492 19.0555C12.0378 19.9465 8.67868 22.1892 6.39469 25.3679L6.33707 25.4481C5.70778 26.3239 5.17318 27.264 4.74225 28.2526L4.66532 28.4292C3.57683 30.9263 3.20994 33.6785 3.60626 36.3735L3.73589 37.255C3.86939 38.1628 4.14295 39.0444 4.54683 39.8683C4.91983 40.6292 5.39998 41.3327 5.97262 41.9575L6.68589 42.7356C6.95527 43.0294 7.41077 43.0523 7.70827 42.787Z" fill="#CCCCCC"/>
<path d="M19.9452 26.143L19.9 26.1688C18.7206 26.8427 18.0861 28.1149 18.1481 29.472C18.1658 29.8579 18.5525 30.2115 18.9242 30.1062L19.609 29.9121C20.4944 29.6612 21.3143 29.2202 22.0115 28.6195L24 26.9063L24.5899 26.4697C28.0192 23.9315 32.3281 22.8857 36.5394 23.5693C36.6694 23.5904 36.6735 23.7757 36.5447 23.8026L36.0469 23.9063L35.8212 23.9852C35.3578 24.1474 34.9553 24.4478 34.6678 24.8459C34.6138 24.9206 34.6858 25.021 34.7739 24.9939L34.9372 24.9437C35.8563 24.6609 36.8204 24.5536 37.7792 24.6273L38.1562 24.6563C40.204 24.7454 42.1044 25.7462 43.3363 27.3844L43.798 27.9985C45.1665 29.8185 45.7456 32.1122 45.4049 34.3637L45.227 35.5395C44.9847 37.1403 44.4017 38.6706 43.5172 40.0268L43.4531 40.1251L42.4688 41.4376L41.3906 42.6563L40.403 43.6045C39.5012 44.4702 38.515 45.2435 37.4594 45.913L37.125 46.1251L36.4852 46.4297C36.3203 46.5082 36.1828 46.2824 36.3281 46.1719L37.2188 45.3282L37.4018 45.1359C37.8968 44.6162 38.2525 43.9801 38.4362 43.2864L38.5208 42.9665C38.5589 42.8228 38.5781 42.6726 38.5781 42.5239C38.5781 41.7103 38.0019 40.9967 37.2034 40.8405C36.7082 40.7435 36.1955 40.8715 35.8038 41.1897L34.9219 41.9063L33.3651 43.1801C32.3433 44.0161 31.2361 44.7418 30.0619 45.3452L28.4531 46.1719L25.7344 47.2032L25.1636 47.3588C24.1708 47.6297 23.1574 47.8182 22.1336 47.9226L21.375 48.0001H18.9375L15.7031 47.6485L13.953 47.2697C13.0298 47.07 12.1365 46.7515 11.2952 46.3222C10.6107 45.973 9.96497 45.5526 9.36853 45.068L8.01562 43.9688C6.37547 42.7163 5.34796 40.8233 5.1914 38.7655L5.10938 37.6876L5.20589 36.1709C5.35631 33.8071 6.26167 31.5541 7.78868 29.7435C8.40611 29.0114 9.11603 28.3626 9.90056 27.8133L10.1885 27.6119C11.3867 26.7731 12.7237 26.1527 14.138 25.7791L15.0888 25.5279C16.3252 25.2013 17.6205 25.1668 18.8725 25.4269L19.8644 25.633C20.1133 25.6847 20.1659 26.0169 19.9452 26.143Z" fill="#5E5E5E"/>
</g>
<defs>
<clipPath id="clip0_108_199">
<rect width="48" height="48" fill="white"/>
</clipPath>
</defs>
</svg>
