<svg width="68" height="68" viewBox="0 0 68 68" fill="none" xmlns="http://www.w3.org/2000/svg">
<g clip-path="url(#clip0_132_134)">
<rect x="28.6906" width="48" height="48" rx="24" transform="rotate(36 28.6906 0)" fill="white"/>
<rect x="28.6906" width="48" height="48" rx="24" transform="rotate(36 28.6906 0)" fill="#26A5E4"/>
<path d="M23.6977 13.6774C24.4771 12.6046 25.6508 11.8853 26.9606 11.6779C28.2703 11.4704 29.6089 11.7918 30.6817 12.5713L54.9522 30.2048C56.025 30.9843 56.7443 32.158 56.9517 33.4677C57.1592 34.7775 56.8378 36.116 56.0584 37.1888L44.3026 53.3692C43.5232 54.442 42.3495 55.1612 41.0397 55.3687C39.73 55.5761 38.3915 55.2548 37.3186 54.4753L13.0481 36.8418C11.9753 36.0623 11.2561 34.8886 11.0486 33.5788C10.8412 32.2691 11.1625 30.9306 11.942 29.8577L23.6977 13.6774ZM29.2122 14.5938C28.6758 14.2041 28.0065 14.0434 27.3517 14.1471C26.6968 14.2508 26.1099 14.6105 25.7202 15.1469L25.4013 15.5858L33.3874 34.3667L53.7169 36.1583L54.0358 35.7194C54.4255 35.1829 54.5862 34.5137 54.4825 33.8588C54.3788 33.2039 54.0191 32.6171 53.4827 32.2274L29.2122 14.5938ZM52.0035 38.5165L38.3302 37.312L43.5953 50.0895L52.0035 38.5165ZM41.8307 52.3736L35.5241 37.0656L31.674 36.725L30.1603 33.1685L13.6542 31.899C13.4564 32.4129 13.4338 32.9777 13.5899 33.5057C13.7461 34.0338 14.0722 34.4955 14.5176 34.8192L38.7881 52.4528C39.2333 52.7763 39.7727 52.9439 40.3229 52.9296C40.873 52.9152 41.403 52.7198 41.8307 52.3736ZM15.2797 29.517L29.0588 30.576L23.6879 17.944L15.2797 29.517Z" fill="#040813"/>
</g>
<defs>
<clipPath id="clip0_132_134">
<rect x="28.6906" width="48" height="48" rx="24" transform="rotate(36 28.6906 0)" fill="white"/>
</clipPath>
</defs>
</svg>
