<svg width="48" height="48" viewBox="0 0 48 48" fill="none" xmlns="http://www.w3.org/2000/svg">
<path d="M24 0L3.20996 12V36L24 48L44.79 36V12L24 0ZM36 33.18C36 34.59 34.708 35.76 32.942 35.76C31.68 35.76 30.24 35.25 29.34 34.14L17.34 19.858V33.178C17.34 34.62 16.2 35.758 14.792 35.758H14.64C13.198 35.758 12.06 34.558 12.06 33.178V14.82C12.06 13.41 13.32 12.24 15.06 12.24C16.352 12.24 17.82 12.75 18.72 13.86L30.66 28.142V14.82C30.66 13.378 31.86 12.24 33.24 12.24H33.39C34.83 12.24 35.97 13.44 35.97 14.82V33.18H36Z" fill="#009639"/>
</svg>
