<svg width="48" height="48" viewBox="0 0 48 48" fill="none" xmlns="http://www.w3.org/2000/svg">
<g clip-path="url(#clip0_108_219)">
<path d="M20.86 6.44602C19.2 9.21802 19.048 9.44402 18.44 10.066C17.174 11.374 15.606 12.072 13.61 12.214C13.236 12.24 11.08 12.28 8.20596 12.314C6.92996 12.33 6.70596 12.336 6.67396 12.37C6.65396 12.392 6.30396 12.918 5.89396 13.542L5.15396 14.672L5.36196 14.682C5.47396 14.688 6.24796 14.676 7.07796 14.66C7.96785 14.641 8.85788 14.6283 9.74796 14.622C10.892 14.622 10.908 14.622 11.082 14.682C11.574 14.85 11.868 15.294 11.792 15.748C11.7621 15.9518 11.6706 16.1415 11.5297 16.2917C11.3889 16.4418 11.2054 16.5453 11.004 16.588C10.796 16.642 10.254 16.656 5.36196 16.738C4.50996 16.752 3.80196 16.768 3.79396 16.778C3.27891 17.5301 2.78078 18.2936 2.29996 19.068C2.30796 19.076 3.10996 19.068 4.08596 19.054C10.346 18.952 15.774 18.87 17.286 18.854C18.74 18.838 19.276 18.814 19.666 18.746C20.746 18.562 21.574 18.152 22.286 17.446C22.792 16.942 23.236 16.302 23.99 14.986C24.24 14.552 24.514 14.086 24.604 13.946L24.88 13.5C24.946 13.392 25.02 13.28 25.044 13.25C25.11 13.174 25.244 12.958 25.324 12.79C25.392 12.65 26.392 10.978 26.824 10.276C27.124 9.79202 27.288 9.65202 27.664 9.56602C28.184 9.44602 28.824 9.77002 28.97 10.23C29.09 10.606 29.036 10.84 28.698 11.41C26.278 15.48 25.398 16.938 24.924 17.656C23.58 19.692 21.556 20.784 18.942 20.882C18.732 20.888 17.396 20.912 15.97 20.934L11.866 20.996L8.68396 21.05C6.616 21.0848 4.548 21.1168 2.47996 21.146C1.47596 21.156 0.957956 21.172 0.919956 21.19C0.821336 21.301 0.740388 21.4264 0.679956 21.562C0.412958 22.0598 0.220888 22.5942 0.109956 23.148C0.0984038 23.2397 0.0720617 23.3288 0.0319563 23.412C-0.0160437 23.426 -0.00804373 24.986 0.0379563 25.032C0.0799928 25.1167 0.107059 25.2081 0.117956 25.302C0.231956 25.872 0.511956 26.534 0.907956 27.166L1.09196 27.46L3.72396 27.476C5.17196 27.484 8.91796 27.506 12.052 27.518C15.436 27.534 17.88 27.556 18.072 27.572C18.708 27.624 19.048 27.676 19.572 27.808C20.833 28.1107 21.9801 28.7704 22.876 29.708C23.386 30.236 23.636 30.588 24.758 32.386C25.49 33.554 27.668 37.112 27.746 37.266C28.03 37.826 27.846 38.408 27.3 38.666C27.1403 38.7483 26.9639 38.7928 26.7843 38.7963C26.6047 38.7997 26.4267 38.762 26.264 38.686C25.974 38.542 25.96 38.526 24.464 36.106C24.1257 35.5561 23.7844 35.0081 23.44 34.462C23.2059 34.0883 22.9765 33.7116 22.752 33.332C22.012 32.092 21.576 31.472 21.112 31.008C20.4708 30.3774 19.6633 29.9424 18.784 29.754C18.212 29.626 18.108 29.622 14.128 29.6C11.9847 29.5849 9.84131 29.5755 7.69796 29.572C6.22196 29.572 4.42996 29.562 3.71796 29.556C2.68396 29.54 2.42396 29.542 2.42396 29.57C2.42396 29.586 2.73596 30.11 3.11996 30.726L3.81596 31.846L4.47996 31.852C9.29396 31.89 9.53996 31.892 9.71796 31.926C10.106 32.006 10.336 32.172 10.49 32.486C10.5675 32.6131 10.6026 32.7617 10.59 32.91C10.5963 33.0381 10.5739 33.1661 10.5244 33.2844C10.475 33.4028 10.3996 33.5086 10.304 33.594C10.1638 33.7303 9.99094 33.8281 9.80196 33.878C9.65196 33.922 9.51796 33.926 7.37396 33.918C5.53396 33.912 5.10596 33.918 5.12196 33.944C5.20196 34.088 6.51196 36.194 6.52996 36.214C6.54596 36.228 7.71396 36.246 9.54596 36.256C12.006 36.272 12.6 36.282 12.892 36.316C15.102 36.576 16.776 37.522 18.038 39.23C18.272 39.546 18.534 39.962 19.862 42.11L20.794 43.618H22.222C23.006 43.618 23.65 43.612 23.65 43.604C23.65 43.596 23.136 42.764 22.51 41.756C21.512 40.1542 20.5187 38.5495 19.53 36.942C19.3531 36.6517 19.1704 36.365 18.982 36.082C18.3013 35.1004 17.2784 34.4084 16.114 34.142C15.61 34.02 15.258 33.988 14.366 33.976C13.474 33.964 13.322 33.944 13.074 33.816C12.878 33.7143 12.7171 33.5561 12.612 33.362C12.546 33.232 12.538 33.186 12.538 32.94C12.538 32.686 12.544 32.65 12.612 32.524C12.6861 32.3877 12.7879 32.2683 12.9109 32.1736C13.0338 32.0789 13.1752 32.0109 13.326 31.974C13.466 31.932 13.586 31.926 14.366 31.926C15.056 31.926 15.326 31.936 15.616 31.974C17.49 32.214 18.896 32.864 20.064 34.028C20.616 34.58 20.858 34.914 21.58 36.112C21.834 36.53 22.404 37.456 22.852 38.168L24.952 41.54L26.24 43.62H28.05C29.494 43.62 29.86 43.61 29.85 43.584C29.6924 43.3225 29.5324 43.0625 29.37 42.804C28.45 41.33 28.384 41.212 28.344 40.918C28.29 40.506 28.58 40.08 29.034 39.918C29.2378 39.8376 29.4612 39.8201 29.6751 39.8679C29.889 39.9157 30.0837 40.0265 30.234 40.186C30.362 40.312 31.062 41.406 32.106 43.116L32.418 43.626L32.774 43.608C33.6826 43.573 34.5743 43.3518 35.394 42.958C35.524 42.898 35.644 42.846 35.662 42.84C36.5041 42.418 37.2408 41.8125 37.818 41.068C39.4231 38.6411 41.0184 36.2078 42.604 33.768C47.572 26.156 47.47 26.32 47.712 25.596C48.1635 24.2734 48.081 22.8267 47.482 21.564C47.386 21.358 45.806 18.79 42.956 14.198C41.4635 11.7807 39.9615 9.36939 38.45 6.96402C37.8788 6.18193 37.123 5.55327 36.25 5.13402C35.6838 4.83393 35.0756 4.62088 34.446 4.50202C34.086 4.43602 34.06 4.43002 34.08 4.39802C34.088 4.38202 33.868 4.37802 33.496 4.37802L32.9 4.38802L32.37 5.26802C31.194 7.22802 31.084 7.40402 30.918 7.57002C30.753 7.74532 30.5366 7.86368 30.3 7.90802C29.856 7.98802 29.308 7.72202 29.12 7.33402C29.06 7.22002 29.054 7.16602 29.054 6.92602C29.054 6.55202 29.036 6.59202 30.062 4.90602C30.1672 4.74099 30.2653 4.5715 30.356 4.39802C30.356 4.38402 29.776 4.37402 28.936 4.37402H27.516L27.478 4.43402C26.2667 6.45757 25.0474 8.47625 23.82 10.49C23.4 11.184 22.884 12.042 22.68 12.396C22.218 13.188 22.028 13.476 21.7 13.884C21.3615 14.2927 20.9845 14.6678 20.574 15.004C19.514 15.826 18.234 16.324 16.734 16.498C16.012 16.582 14.966 16.594 14.59 16.524C14.4302 16.4916 14.2791 16.4256 14.1467 16.3305C14.0143 16.2353 13.9036 16.1131 13.822 15.972C13.756 15.842 13.748 15.806 13.748 15.552C13.748 15.312 13.756 15.258 13.816 15.132C13.8866 14.9941 13.986 14.8729 14.1074 14.7767C14.2289 14.6804 14.3695 14.6113 14.52 14.574C14.666 14.534 14.84 14.52 15.55 14.5C16.078 14.486 16.52 14.46 16.706 14.434C17.1142 14.3735 17.5154 14.273 17.904 14.134C18.232 14.004 18.696 13.754 18.968 13.558C19.3656 13.255 19.7219 12.9014 20.028 12.506C20.14 12.358 20.678 11.488 21.226 10.574C21.772 9.65802 22.826 7.90602 23.568 6.68002C24.308 5.45202 24.922 4.43202 24.928 4.41002C24.94 4.37802 24.732 4.37402 23.522 4.37402H22.106L20.862 6.44402L20.86 6.44602ZM34.932 7.51802C34.932 7.53802 34.942 7.55802 34.956 7.56202C34.966 7.56402 35.158 7.86002 35.38 8.21602C36.392 9.83602 36.764 10.45 36.82 10.604C36.892 10.804 36.9 11.066 36.836 11.25C36.7281 11.4661 36.5618 11.6477 36.356 11.774C36.1482 11.8939 35.9067 11.9416 35.669 11.9098C35.4313 11.878 35.2108 11.7683 35.042 11.598C34.882 11.448 34.712 11.196 34.122 10.228C33.902 9.86402 33.694 9.53602 33.664 9.49602C33.632 9.44802 33.62 9.40402 33.632 9.36402C33.652 9.30202 34.752 7.60402 34.834 7.51402C34.888 7.45402 34.934 7.45402 34.934 7.52002L34.932 7.51802ZM32.16 11.792C32.152 11.806 32.16 11.818 32.17 11.824C32.194 11.832 34.176 15.01 35.318 16.87C36.278 18.426 36.71 19.124 37.078 19.696C37.68 20.634 37.904 21.07 38.13 21.748C38.36 22.432 38.45 23.054 38.424 23.758C38.41 24.238 38.364 24.538 38.248 25.006C38.044 25.806 37.598 26.738 37.028 27.562C36.848 27.818 36.482 28.206 36.42 28.206C36.4 28.206 36.38 28.216 36.38 28.23C36.38 28.242 36.302 28.28 36.208 28.31C35.9519 28.3844 35.6789 28.376 35.428 28.286C35.1772 28.1641 34.9714 27.966 34.84 27.72C34.776 27.586 34.772 27.546 34.782 27.34C34.796 27.06 34.854 26.936 35.244 26.334C35.744 25.564 35.948 25.142 36.092 24.564C36.34 23.584 36.218 22.612 35.724 21.644C35.626 21.454 35.004 20.432 34.34 19.368C33.5626 18.1258 32.7893 16.8812 32.02 15.634C31.404 14.642 30.882 13.798 30.852 13.758C30.824 13.716 30.804 13.668 30.812 13.65C30.832 13.596 31.992 11.836 32.052 11.774C32.092 11.73 32.112 11.722 32.138 11.742C32.158 11.758 32.168 11.782 32.158 11.794L32.16 11.792ZM38.444 13.61C38.6487 13.6849 38.8287 13.8151 38.964 13.986C39.154 14.22 41.814 18.446 42.786 20.066C43.346 20.99 43.606 21.566 43.786 22.272C43.91 22.758 43.958 23.134 43.958 23.65C43.958 24.336 43.884 24.79 43.668 25.444C43.416 26.208 43.234 26.55 42.352 27.916C42.032 28.416 40.356 31.012 38.636 33.69L34.912 39.47C34.586 39.976 34.306 40.41 34.292 40.44C34.276 40.466 34.254 40.486 34.238 40.48C33.8021 39.8215 33.3853 39.1505 32.988 38.468C32.988 38.45 33.012 38.402 33.038 38.364C35.6003 34.3849 38.1643 30.4069 40.73 26.43C41.14 25.794 41.262 25.572 41.416 25.19C41.6388 24.659 41.7412 24.0853 41.716 23.51C41.688 22.878 41.562 22.43 41.208 21.722C40.948 21.19 40.698 20.77 40.084 19.822C39.834 19.436 39.546 18.982 39.446 18.814C39.1251 18.2861 38.8011 17.7601 38.474 17.236C36.946 14.784 36.964 14.816 36.96 14.536C36.96 14.3 37.04 14.112 37.216 13.922C37.3906 13.7419 37.6124 13.6143 37.856 13.554C38.0535 13.5254 38.255 13.5439 38.444 13.608V13.61ZM29.364 16.04L29.764 16.69C31.946 20.184 32.038 20.338 32.258 20.776C33.18 22.614 33.188 24.44 32.286 26.246C32.094 26.626 32.016 26.756 30.752 28.718C29.056 31.358 28.858 31.658 28.804 31.718C28.76 31.762 28.754 31.766 28.754 31.724C28.754 31.7 27.688 29.962 26.386 27.864C25.5892 26.59 24.7998 25.3113 24.018 24.028C24.018 24.014 25.126 22.312 26.484 20.244C27.3626 18.9077 28.2386 17.5697 29.112 16.23C29.1662 16.1384 29.2306 16.0532 29.304 15.976C29.318 15.976 29.344 16.002 29.364 16.04ZM34.238 29.726C34.4686 29.8427 34.6609 30.0232 34.792 30.246C34.8364 30.3426 34.8642 30.4461 34.874 30.552C34.894 30.818 34.826 30.972 34.346 31.728C33.5145 33.0319 32.6811 34.3345 31.846 35.636L31.596 36.024C31.552 36.104 31.544 36.108 31.5 36.076C31.0842 35.4372 30.6808 34.7904 30.29 34.136C30.266 34.076 32.764 30.186 32.944 30C33.0553 29.8756 33.1934 29.7782 33.348 29.7152C33.5025 29.6521 33.6694 29.625 33.836 29.636C33.9752 29.6335 34.1131 29.6643 34.238 29.726Z" fill="#2B037A"/>
</g>
<defs>
<clipPath id="clip0_108_219">
<rect width="48" height="48" fill="white"/>
</clipPath>
</defs>
</svg>
