<svg width="48" height="46" viewBox="0 0 48 46" fill="none" xmlns="http://www.w3.org/2000/svg">
<path d="M33.268 32.008C35.008 31.858 36.354 30.328 36.268 28.5C36.174 26.672 34.676 25.204 32.85 25.204H32.728C31.8218 25.2363 30.9656 25.6272 30.3475 26.2906C29.7294 26.9541 29.4001 27.8358 29.432 28.742C29.492 29.7 29.884 30.48 30.42 31.048C28.324 35.124 25.178 38.12 20.41 40.638C17.204 42.314 13.818 42.946 10.522 42.498C7.766 42.108 5.61 40.878 4.29 38.9C2.314 35.902 2.134 32.668 3.78 29.432C4.98 27.092 6.778 25.386 7.978 24.546C7.61574 23.5415 7.33483 22.5095 7.138 21.46C-1.736 27.816 -0.832 36.504 1.864 40.61C3.872 43.606 7.978 45.522 12.472 45.522C13.672 45.522 14.932 45.434 16.158 45.134C23.952 43.636 29.854 38.962 33.24 32.07L33.268 32.008ZM43.964 24.516C39.324 19.06 32.488 16.064 24.696 16.064H23.676C23.17 14.956 22.002 14.266 20.68 14.266H20.59C18.704 14.266 17.234 15.886 17.296 17.772C17.356 19.568 18.884 21.068 20.712 21.068H20.86C21.5084 21.043 22.1358 20.8318 22.6675 20.4598C23.1991 20.0878 23.6124 19.5706 23.858 18.97H24.968C29.586 18.97 33.958 20.318 37.944 22.954C40.998 24.964 43.188 27.6 44.418 30.748C45.494 33.324 45.436 35.842 44.328 37.942C42.618 41.236 39.74 42.976 35.936 42.976C33.538 42.976 31.202 42.226 30.002 41.688C29.282 42.284 28.082 43.274 27.214 43.874C29.85 45.07 32.518 45.76 35.094 45.76C40.938 45.76 45.282 42.466 46.932 39.288C48.728 35.692 48.58 29.64 43.992 24.456L43.964 24.516ZM12.98 33.084C13.04 34.882 14.566 36.38 16.396 36.38H16.516C16.9664 36.3698 17.4101 36.2696 17.8212 36.0853C18.2322 35.901 18.6022 35.6363 18.9094 35.3068C19.2165 34.9773 19.4546 34.5896 19.6096 34.1666C19.7647 33.7437 19.8335 33.294 19.812 32.844C19.812 31.044 18.254 29.55 16.426 29.55H16.306C16.186 29.55 16.006 29.55 15.854 29.608C13.368 25.412 12.318 20.914 12.71 16.064C12.95 12.408 14.15 9.23 16.304 6.594C18.104 4.346 21.49 3.234 23.798 3.178C30.27 3.056 32.968 11.12 33.176 14.326L36.172 15.226C35.482 5.394 29.372 0.24 23.528 0.24C18.04 0.24 12.98 4.226 10.94 10.07C8.154 17.86 9.982 25.354 13.4 31.348C13.1 31.738 12.92 32.426 12.98 33.084Z" fill="#764ABC"/>
</svg>
