<svg width="48" height="48" viewBox="0 0 48 48" fill="none" xmlns="http://www.w3.org/2000/svg">
<path d="M24 0C37.254 0 48 10.746 48 24C48 37.254 37.254 48 24 48C10.746 48 0 37.254 0 24C0 10.746 10.746 0 24 0ZM19.23 31.996C19.58 33.286 19.542 34.492 19.182 35.58L19.052 35.94C19.004 36.062 18.948 36.18 18.896 36.292C18.616 36.872 18.244 37.412 17.786 37.912C16.39 39.43 14.442 40.006 13.606 39.522C12.706 38.998 13.154 36.852 14.774 35.142C16.516 33.306 19.014 32.124 19.014 32.124V32.118L19.23 31.996ZM39.052 10.274C37.968 6.008 30.898 4.606 24.208 6.984C20.23 8.398 15.92 10.62 12.822 13.518C9.136 16.96 8.55 19.96 8.792 21.214C9.646 25.636 15.706 28.528 18.198 30.674V30.686C17.464 31.046 12.086 33.744 10.826 36.536C9.476 39.476 11.036 41.578 12.056 41.846C15.206 42.718 18.446 41.126 20.186 38.548C21.866 36.026 21.718 32.786 20.994 31.196C21.986 30.926 23.154 30.806 24.654 30.988C28.856 31.468 29.696 34.108 29.514 35.188C29.334 36.266 28.468 36.896 28.166 37.076C27.866 37.258 27.776 37.316 27.804 37.438C27.834 37.618 27.986 37.618 28.224 37.588C28.554 37.528 30.416 36.688 30.506 34.646C30.596 32.066 28.134 29.188 23.756 29.246C21.956 29.278 20.814 29.428 20.006 29.758C19.946 29.668 19.884 29.608 19.796 29.548C17.096 26.638 12.086 24.598 12.296 20.728C12.356 19.318 12.866 15.6 21.896 11.1C29.306 7.408 35.218 8.43 36.238 10.68C37.704 13.888 33.086 19.86 25.376 20.728C22.436 21.058 20.906 19.92 20.514 19.498C20.096 19.048 20.036 19.018 19.886 19.11C19.646 19.23 19.796 19.62 19.886 19.86C20.126 20.46 21.056 21.51 22.678 22.05C24.086 22.5 27.538 22.768 31.678 21.15C36.326 19.352 39.956 14.34 38.906 10.14L39.052 10.274Z" fill="#CC6699"/>
</svg>
