<svg width="48" height="48" viewBox="0 0 48 48" fill="none" xmlns="http://www.w3.org/2000/svg">
<g clip-path="url(#clip0_108_223)">
<path d="M46.316 1.0427C44.252 -0.797305 41.756 -0.0573049 39.29 2.1307C38.9098 2.47116 38.5448 2.82818 38.196 3.2007C33.978 7.6747 30.064 15.9607 28.848 22.2887C29.322 23.2487 29.692 24.4747 29.936 25.4107C30.0583 25.8762 30.1677 26.3451 30.264 26.8167C30.264 26.8167 30.226 26.6747 30.072 26.2247L29.972 25.9327C29.9514 25.8788 29.9294 25.8255 29.906 25.7727C29.63 25.1327 28.87 23.7827 28.534 23.1947C28.248 24.0407 27.994 24.8307 27.782 25.5467C28.75 27.3147 29.338 30.3467 29.338 30.3467C29.338 30.3467 29.288 30.1487 29.044 29.4627C28.83 28.8567 27.756 26.9747 27.5 26.5347C27.066 28.1427 26.892 29.2267 27.048 29.4907C27.352 30.0027 27.64 30.8867 27.892 31.8627C28.464 34.0627 28.862 36.7427 28.862 36.7427L28.896 37.1907C28.8208 39.0233 28.8582 40.8587 29.008 42.6867C29.198 44.9787 29.554 46.9467 30.008 48.0007L30.318 47.8327C29.65 45.7567 29.378 43.0347 29.498 39.8987C29.678 35.1027 30.782 29.3187 32.82 23.2907C36.266 14.1907 41.046 6.8887 45.42 3.4007C41.434 7.00069 36.036 18.6607 34.42 22.9767C32.612 27.8087 31.33 32.3447 30.558 36.6907C31.89 32.6167 36.2 30.8667 36.2 30.8667C36.2 30.8667 38.314 28.2587 40.784 24.5347C39.304 24.8727 36.874 25.4507 36.06 25.7927C34.86 26.2947 34.536 26.4667 34.536 26.4667C34.536 26.4667 38.426 24.0987 41.762 23.0267C46.35 15.8007 51.35 5.5347 46.316 1.0427ZM9.17 2.1287C8.19745 2.13239 7.26581 2.5205 6.57829 3.2084C5.89077 3.89629 5.50316 4.82814 5.5 5.8007V39.0167C5.50317 39.9889 5.89091 40.9203 6.57854 41.6076C7.26617 42.2948 8.19781 42.6821 9.17 42.6847H28.006C27.8648 40.8836 27.8301 39.0758 27.902 37.2707C27.89 37.1467 27.88 36.9887 27.87 36.8707C27.626 35.272 27.3104 33.6851 26.924 32.1147C26.682 31.1747 26.374 30.3187 26.186 30.0007C25.954 29.6067 25.99 29.3807 25.992 29.1367C25.992 28.8967 26.022 28.6467 26.066 28.3647C26.1845 27.6602 26.3407 26.9625 26.534 26.2747L26.968 26.2187C26.934 26.1487 26.94 26.0887 26.906 26.0247L26.824 25.2627C27.0634 24.4619 27.3181 23.6658 27.588 22.8747L27.988 22.8367C27.972 22.8047 27.968 22.7607 27.952 22.7307L27.866 22.0987C29.126 15.5387 33.04 7.2127 37.466 2.5167C37.598 2.3787 37.732 2.2607 37.862 2.1287H9.17Z" fill="#8DD6F9"/>
</g>
<defs>
<clipPath id="clip0_108_223">
<rect width="48" height="48" fill="white"/>
</clipPath>
</defs>
</svg>
