<svg width="48" height="48" viewBox="0 0 48 48" fill="none" xmlns="http://www.w3.org/2000/svg">
<g clip-path="url(#clip0_126_83)">
<path d="M23.888 6.53334e-05C17.5422 0.0296792 11.4665 2.57131 6.98979 7.06898C2.51311 11.5666 -6.90981e-05 17.6542 1.42487e-09 24.0001C1.42488e-09 30.3653 2.52856 36.4698 7.02944 40.9706C11.5303 45.4715 17.6348 48.0001 24 48.0001C30.3652 48.0001 36.4697 45.4715 40.9706 40.9706C45.4714 36.4698 48 30.3653 48 24.0001C48 17.6349 45.4714 11.5304 40.9706 7.0295C36.4697 2.52863 30.3652 6.53334e-05 24 6.53334e-05C23.9627 -2.17778e-05 23.9253 -2.17778e-05 23.888 6.53334e-05ZM33.812 14.4481C34.012 14.4441 34.454 14.4941 34.742 14.7281C34.9334 14.8943 35.0554 15.1262 35.084 15.3781C35.116 15.5641 35.156 15.9901 35.124 16.3221C34.764 20.1181 33.2 29.3261 32.404 33.5761C32.068 35.3761 31.406 35.9781 30.764 36.0361C29.372 36.1661 28.314 35.1161 26.964 34.2321C24.852 32.8461 23.658 31.9841 21.608 30.6321C19.238 29.0721 20.774 28.2121 22.124 26.8121C22.478 26.4441 28.618 20.8581 28.738 20.3521C28.752 20.2881 28.766 20.0521 28.626 19.9281C28.486 19.8041 28.278 19.8461 28.128 19.8801C27.916 19.9281 24.542 22.1601 18.006 26.5701C17.046 27.2301 16.18 27.5501 15.402 27.5301C14.546 27.5141 12.898 27.0481 11.672 26.6501C10.168 26.1601 8.974 25.9021 9.078 25.0721C9.132 24.6401 9.728 24.1981 10.864 23.7461C17.86 20.6981 22.524 18.6881 24.86 17.7181C31.524 14.9461 32.91 14.4641 33.812 14.4481Z" fill="#26A5E4"/>
</g>
<defs>
<clipPath id="clip0_126_83">
<rect width="48" height="48" fill="white"/>
</clipPath>
</defs>
</svg>
