<svg width="48" height="48" viewBox="0 0 48 48" fill="none" xmlns="http://www.w3.org/2000/svg">
<g clip-path="url(#clip0_108_217)">
<path d="M35.22 0.910034C33.4112 0.910034 31.6765 1.62857 30.3975 2.90757C29.1185 4.18656 28.4 5.92126 28.4 7.73003C28.4 9.53881 29.1185 11.2735 30.3975 12.5525C31.6765 13.8315 33.4112 14.55 35.22 14.55C37.0288 14.55 38.7635 13.8315 40.0425 12.5525C41.3215 11.2735 42.04 9.53881 42.04 7.73003C42.04 5.92126 41.3215 4.18656 40.0425 2.90757C38.7635 1.62857 37.0288 0.910034 35.22 0.910034ZM25.84 1.60003C17.846 1.55403 10.274 5.88203 6.296 12.902C6.46916 12.8924 6.64257 12.8877 6.816 12.888C8.64275 12.89 10.4329 13.4003 11.986 14.362C13.4891 12.191 15.4875 10.4091 17.8159 9.16372C20.1443 7.91831 22.7358 7.24518 25.376 7.20003C25.4863 5.1882 26.2085 3.25807 27.446 1.66803C26.9117 1.62583 26.376 1.60314 25.84 1.60003ZM44.292 11.588C43.5041 13.4432 42.165 15.0114 40.456 16.08C41.8202 18.6555 42.4874 21.5428 42.3917 24.4557C42.2959 27.3685 41.4404 30.2058 39.91 32.686C41.5066 33.9927 42.6491 35.7708 43.174 37.766C46.0973 34.078 47.7796 29.5602 47.9804 24.8584C48.1812 20.1567 46.8902 15.5118 44.292 11.588ZM6.82 15.864C5.01122 15.864 3.27653 16.5826 1.99753 17.8616C0.718534 19.1406 0 20.8753 0 22.684C0.000530331 24.4925 0.719298 26.2266 1.99824 27.5052C3.27718 28.7838 5.01157 29.502 6.82 29.502C8.62878 29.502 10.3635 28.7835 11.6425 27.5045C12.9215 26.2255 13.64 24.4908 13.64 22.682C13.64 20.8733 12.9215 19.1386 11.6425 17.8596C10.3635 16.5806 8.62878 15.864 6.82 15.864ZM10.874 31.596C9.0493 32.4242 7.01486 32.674 5.044 32.312C6.40714 35.683 8.57745 38.6676 11.3642 41.0034C14.1509 43.3392 17.4687 44.9548 21.026 45.708C22.6179 46.049 24.2421 46.216 25.87 46.206C24.6179 44.5652 23.9184 42.5695 23.872 40.506C23.3105 40.4433 22.7525 40.3525 22.2 40.234C19.7895 39.7242 17.5226 38.6844 15.5636 37.19C13.6047 35.6956 12.0028 33.7841 10.874 31.594V31.596ZM33.684 33.452C31.8752 33.452 30.1405 34.1706 28.8615 35.4496C27.5825 36.7286 26.864 38.4633 26.864 40.272C26.864 42.0808 27.5825 43.8155 28.8615 45.0945C30.1405 46.3735 31.8752 47.092 33.684 47.092C35.4928 47.092 37.2275 46.3735 38.5065 45.0945C39.7855 43.8155 40.504 42.0808 40.504 40.272C40.504 38.4633 39.7855 36.7286 38.5065 35.4496C37.2275 34.1706 35.4928 33.452 33.684 33.452Z" fill="#E95420"/>
</g>
<defs>
<clipPath id="clip0_108_217">
<rect width="48" height="48" fill="white"/>
</clipPath>
</defs>
</svg>
