<svg width="48" height="48" viewBox="0 0 48 48" fill="none" xmlns="http://www.w3.org/2000/svg">
<path d="M16.5722 21.156L17.5962 3.84196C17.6043 3.70648 17.6573 3.57755 17.7467 3.47545C17.8361 3.37336 17.957 3.30388 18.0902 3.27796L34.7542 0.0119586C34.8571 -0.00825206 34.9635 -0.00167471 35.0631 0.0310595C35.1628 0.0637937 35.2523 0.121586 35.3232 0.198892C35.3941 0.276197 35.4439 0.370422 35.4679 0.472523C35.4919 0.574625 35.4892 0.681178 35.4602 0.781959L32.3442 11.588C32.3153 11.6885 32.3126 11.7949 32.3365 11.8968C32.3604 11.9987 32.4101 12.0927 32.4807 12.17C32.5513 12.2472 32.6406 12.3051 32.7399 12.338C32.8393 12.3709 32.9454 12.3778 33.0482 12.358L37.8242 11.438C37.9366 11.416 38.0528 11.426 38.1598 11.4668C38.2668 11.5076 38.3602 11.5776 38.4294 11.6689C38.4985 11.7601 38.5407 11.869 38.5511 11.983C38.5615 12.097 38.5397 12.2117 38.4882 12.314L24.9082 39.414L24.6622 39.794C24.6093 39.88 24.5351 39.9509 24.4469 40C24.3586 40.049 24.2592 40.0745 24.1582 40.074C23.8042 40.074 23.4582 39.77 23.5482 39.336L25.7382 28.734C25.7597 28.6301 25.7538 28.5225 25.7212 28.4216C25.6886 28.3206 25.6303 28.23 25.552 28.1584C25.4738 28.0868 25.3783 28.0368 25.2749 28.0132C25.1715 27.9896 25.0637 27.9933 24.9622 28.024L22.0962 28.894C21.9947 28.9249 21.887 28.9289 21.7835 28.9056C21.68 28.8823 21.5843 28.8326 21.5059 28.7612C21.4274 28.6898 21.3689 28.5992 21.336 28.4984C21.3031 28.3975 21.2969 28.2899 21.3182 28.186L22.0082 24.811L22.6982 21.436C22.7191 21.3352 22.7143 21.2307 22.6841 21.1323C22.654 21.0339 22.5995 20.9447 22.5257 20.8729C22.452 20.8011 22.3613 20.7491 22.2621 20.7217C22.1629 20.6943 22.0584 20.6923 21.9582 20.716L17.3182 21.788C17.2256 21.8092 17.1293 21.8087 17.037 21.7863C16.9446 21.7639 16.8588 21.7203 16.7862 21.659C16.7136 21.5977 16.6563 21.5203 16.6188 21.433C16.5813 21.3457 16.5647 21.2508 16.5702 21.156H16.5722Z" fill="#646CFF"/>
<path d="M16.5722 21.156L17.5962 3.84196C17.6043 3.70648 17.6573 3.57755 17.7467 3.47545C17.8361 3.37336 17.957 3.30388 18.0902 3.27796L34.7542 0.0119586C34.8571 -0.00825206 34.9635 -0.00167471 35.0631 0.0310595C35.1628 0.0637937 35.2523 0.121586 35.3232 0.198892C35.3941 0.276197 35.4439 0.370422 35.4679 0.472523C35.4919 0.574625 35.4892 0.681178 35.4602 0.781959L32.3442 11.588C32.3153 11.6885 32.3126 11.7949 32.3365 11.8968C32.3604 11.9987 32.4101 12.0927 32.4807 12.17C32.5513 12.2472 32.6406 12.3051 32.7399 12.338C32.8393 12.3709 32.9454 12.3778 33.0482 12.358L37.8242 11.438C37.9366 11.416 38.0528 11.426 38.1598 11.4668C38.2668 11.5076 38.3602 11.5776 38.4294 11.6689C38.4985 11.7601 38.5407 11.869 38.5511 11.983C38.5615 12.097 38.5397 12.2117 38.4882 12.314L24.9082 39.414L24.6622 39.794C24.6093 39.88 24.5351 39.9509 24.4469 40C24.3586 40.049 24.2592 40.0745 24.1582 40.074C23.8042 40.074 23.4582 39.77 23.5482 39.336L25.7382 28.734C25.7597 28.6301 25.7538 28.5225 25.7212 28.4216C25.6886 28.3206 25.6303 28.23 25.552 28.1584C25.4738 28.0868 25.3783 28.0368 25.2749 28.0132C25.1715 27.9896 25.0637 27.9933 24.9622 28.024L22.0962 28.894C21.9947 28.9249 21.887 28.9289 21.7835 28.9056C21.68 28.8823 21.5843 28.8326 21.5059 28.7612C21.4274 28.6898 21.3689 28.5992 21.336 28.4984C21.3031 28.3975 21.2969 28.2899 21.3182 28.186L22.0082 24.811L22.6982 21.436C22.7191 21.3352 22.7143 21.2307 22.6841 21.1323C22.654 21.0339 22.5995 20.9447 22.5257 20.8729C22.452 20.8011 22.3613 20.7491 22.2621 20.7217C22.1629 20.6943 22.0584 20.6923 21.9582 20.716L17.3182 21.788C17.2256 21.8092 17.1293 21.8087 17.037 21.7863C16.9446 21.7639 16.8588 21.7203 16.7862 21.659C16.7136 21.5977 16.6563 21.5203 16.6188 21.433C16.5813 21.3457 16.5647 21.2508 16.5702 21.156H16.5722Z" fill="#E5B567"/>
<path d="M46.5242 5.30396L34.5682 7.47996L33.4802 11.254L37.6342 10.454C37.9561 10.3898 38.29 10.4262 38.5905 10.5582C38.891 10.6902 39.1437 10.9115 39.3142 11.192C39.4589 11.4252 39.5412 11.6918 39.5531 11.9661C39.565 12.2403 39.5061 12.513 39.3822 12.758L25.8002 39.86L25.7742 39.91L25.7442 39.956L25.5002 40.336C25.356 40.5619 25.1573 40.748 24.9225 40.8773C24.6877 41.0066 24.4242 41.0749 24.1562 41.076C23.9134 41.0746 23.674 41.0198 23.4548 40.9154C23.2356 40.811 23.0422 40.6596 22.8882 40.472C22.7384 40.2865 22.6319 40.07 22.5766 39.8382C22.5212 39.6063 22.5183 39.365 22.5682 39.132L24.6262 29.17L22.3862 29.85C22.0798 29.9423 21.7529 29.9417 21.4468 29.8485C21.1407 29.7552 20.8691 29.5734 20.6662 29.326C20.5149 29.1412 20.4068 28.9251 20.3497 28.6933C20.2926 28.4614 20.288 28.2198 20.3362 27.986L20.9662 24.906L21.5962 21.826L17.5422 22.762C17.2677 22.8248 16.9817 22.8149 16.7122 22.7331C16.4428 22.6514 16.1994 22.5007 16.0062 22.296C15.8564 22.1357 15.7407 21.9468 15.6661 21.7405C15.5915 21.5342 15.5595 21.3149 15.5722 21.096L16.3502 7.95596L1.47018 5.29596C1.24092 5.25459 1.00461 5.2795 0.789018 5.36777C0.573424 5.45605 0.387499 5.60402 0.253085 5.79429C0.118671 5.98457 0.0413518 6.20926 0.0302096 6.44196C0.0190675 6.67466 0.0745654 6.90571 0.190184 7.10796L23.1602 47.382C23.2675 47.5705 23.423 47.7271 23.6107 47.8358C23.7984 47.9444 24.0116 48.0013 24.2285 48.0005C24.4454 47.9996 24.6582 47.9412 24.8451 47.8311C25.032 47.721 25.1863 47.5633 25.2922 47.374L47.8122 7.10396C47.9251 6.90134 47.9781 6.67083 47.965 6.43926C47.9519 6.20769 47.8733 5.9846 47.7383 5.79598C47.6034 5.60736 47.4176 5.46097 47.2026 5.37386C46.9877 5.28675 46.7524 5.26251 46.5242 5.30396Z" fill="#646CFF"/>
</svg>
