<svg width="48" height="48" viewBox="0 0 48 48" fill="none" xmlns="http://www.w3.org/2000/svg">
<g clip-path="url(#clip0_108_214)">
<path d="M44.1314 36.9962L24.5916 48.0006V39.4296L36.766 32.762L44.1314 36.9962ZM45.468 35.791V12.777L38.3176 16.8858V31.6778L45.468 35.791ZM3.3366 36.9962L22.8764 48.0006V39.4296L10.702 32.762L3.3366 36.9962ZM2 35.791V12.777L9.1502 16.8858V31.6778L2 35.791ZM2.8366 11.288L22.8764 0V8.2868L10.038 15.3174L9.9402 15.3734L2.8366 11.288ZM44.6316 11.288L24.5916 0V8.2868L37.43 15.3176L37.5278 15.3736L44.6316 11.288ZM22.8766 37.48L10.8654 30.9054V17.877L22.8762 24.782L22.8766 37.48ZM24.5916 37.48L36.6022 30.9054V17.877L24.5916 24.782V37.48ZM11.6788 16.3692L23.7362 9.7662L35.794 16.3692L23.7364 23.3022L11.6788 16.3692Z" fill="#8DD6F9"/>
</g>
<defs>
<clipPath id="clip0_108_214">
<rect width="48" height="48" fill="white"/>
</clipPath>
</defs>
</svg>
