<svg width="45" height="45" viewBox="0 0 45 45" fill="none" xmlns="http://www.w3.org/2000/svg">
<g clip-path="url(#clip0_13_15)">
<path d="M18.2812 16.875C17.9083 16.875 17.5506 17.0232 17.2869 17.2869C17.0232 17.5506 16.875 17.9083 16.875 18.2812V26.7188C16.875 27.0917 17.0232 27.4494 17.2869 27.7131C17.5506 27.9768 17.9083 28.125 18.2812 28.125H26.7188C27.0917 28.125 27.4494 27.9768 27.7131 27.7131C27.9768 27.4494 28.125 27.0917 28.125 26.7188V18.2812C28.125 17.9083 27.9768 17.5506 27.7131 17.2869C27.4494 17.0232 27.0917 16.875 26.7188 16.875H18.2812Z" fill="white" fill-opacity="0.7"/>
<path d="M15.4688 1.40625C15.4688 1.03329 15.3206 0.675604 15.0569 0.411881C14.7931 0.148158 14.4355 0 14.0625 0C13.6895 0 13.3319 0.148158 13.0681 0.411881C12.8044 0.675604 12.6562 1.03329 12.6562 1.40625V5.625C10.7914 5.625 9.00302 6.36579 7.68441 7.68441C6.36579 9.00302 5.625 10.7914 5.625 12.6562H1.40625C1.03329 12.6562 0.675604 12.8044 0.411881 13.0681C0.148158 13.3319 0 13.6895 0 14.0625C0 14.4355 0.148158 14.7931 0.411881 15.0569C0.675604 15.3206 1.03329 15.4688 1.40625 15.4688H5.625V18.2812H1.40625C1.03329 18.2812 0.675604 18.4294 0.411881 18.6931C0.148158 18.9569 0 19.3145 0 19.6875C0 20.0605 0.148158 20.4181 0.411881 20.6819C0.675604 20.9456 1.03329 21.0938 1.40625 21.0938H5.625V23.9062H1.40625C1.03329 23.9062 0.675604 24.0544 0.411881 24.3181C0.148158 24.5819 0 24.9395 0 25.3125C0 25.6855 0.148158 26.0431 0.411881 26.3069C0.675604 26.5706 1.03329 26.7188 1.40625 26.7188H5.625V29.5312H1.40625C1.03329 29.5312 0.675604 29.6794 0.411881 29.9431C0.148158 30.2069 0 30.5645 0 30.9375C0 31.3105 0.148158 31.6681 0.411881 31.9319C0.675604 32.1956 1.03329 32.3438 1.40625 32.3438H5.625C5.625 34.2086 6.36579 35.997 7.68441 37.3156C9.00302 38.6342 10.7914 39.375 12.6562 39.375V43.5938C12.6562 43.9667 12.8044 44.3244 13.0681 44.5881C13.3319 44.8518 13.6895 45 14.0625 45C14.4355 45 14.7931 44.8518 15.0569 44.5881C15.3206 44.3244 15.4688 43.9667 15.4688 43.5938V39.375H18.2812V43.5938C18.2812 43.9667 18.4294 44.3244 18.6931 44.5881C18.9569 44.8518 19.3145 45 19.6875 45C20.0605 45 20.4181 44.8518 20.6819 44.5881C20.9456 44.3244 21.0938 43.9667 21.0938 43.5938V39.375H23.9062V43.5938C23.9062 43.9667 24.0544 44.3244 24.3181 44.5881C24.5819 44.8518 24.9395 45 25.3125 45C25.6855 45 26.0431 44.8518 26.3069 44.5881C26.5706 44.3244 26.7188 43.9667 26.7188 43.5938V39.375H29.5312V43.5938C29.5312 43.9667 29.6794 44.3244 29.9431 44.5881C30.2069 44.8518 30.5645 45 30.9375 45C31.3105 45 31.6681 44.8518 31.9319 44.5881C32.1956 44.3244 32.3438 43.9667 32.3438 43.5938V39.375C34.2086 39.375 35.997 38.6342 37.3156 37.3156C38.6342 35.997 39.375 34.2086 39.375 32.3438H43.5938C43.9667 32.3438 44.3244 32.1956 44.5881 31.9319C44.8518 31.6681 45 31.3105 45 30.9375C45 30.5645 44.8518 30.2069 44.5881 29.9431C44.3244 29.6794 43.9667 29.5312 43.5938 29.5312H39.375V26.7188H43.5938C43.9667 26.7188 44.3244 26.5706 44.5881 26.3069C44.8518 26.0431 45 25.6855 45 25.3125C45 24.9395 44.8518 24.5819 44.5881 24.3181C44.3244 24.0544 43.9667 23.9062 43.5938 23.9062H39.375V21.0938H43.5938C43.9667 21.0938 44.3244 20.9456 44.5881 20.6819C44.8518 20.4181 45 20.0605 45 19.6875C45 19.3145 44.8518 18.9569 44.5881 18.6931C44.3244 18.4294 43.9667 18.2812 43.5938 18.2812H39.375V15.4688H43.5938C43.9667 15.4688 44.3244 15.3206 44.5881 15.0569C44.8518 14.7931 45 14.4355 45 14.0625C45 13.6895 44.8518 13.3319 44.5881 13.0681C44.3244 12.8044 43.9667 12.6562 43.5938 12.6562H39.375C39.375 10.7914 38.6342 9.00302 37.3156 7.68441C35.997 6.36579 34.2086 5.625 32.3438 5.625V1.40625C32.3438 1.03329 32.1956 0.675604 31.9319 0.411881C31.6681 0.148158 31.3105 0 30.9375 0C30.5645 0 30.2069 0.148158 29.9431 0.411881C29.6794 0.675604 29.5312 1.03329 29.5312 1.40625V5.625H26.7188V1.40625C26.7188 1.03329 26.5706 0.675604 26.3069 0.411881C26.0431 0.148158 25.6855 0 25.3125 0C24.9395 0 24.5819 0.148158 24.3181 0.411881C24.0544 0.675604 23.9062 1.03329 23.9062 1.40625V5.625H21.0938V1.40625C21.0938 1.03329 20.9456 0.675604 20.6819 0.411881C20.4181 0.148158 20.0605 0 19.6875 0C19.3145 0 18.9569 0.148158 18.6931 0.411881C18.4294 0.675604 18.2812 1.03329 18.2812 1.40625V5.625H15.4688V1.40625ZM18.2812 14.0625H26.7188C27.8376 14.0625 28.9107 14.507 29.7019 15.2981C30.493 16.0893 30.9375 17.1624 30.9375 18.2812V26.7188C30.9375 27.8376 30.493 28.9107 29.7019 29.7019C28.9107 30.493 27.8376 30.9375 26.7188 30.9375H18.2812C17.1624 30.9375 16.0893 30.493 15.2981 29.7019C14.507 28.9107 14.0625 27.8376 14.0625 26.7188V18.2812C14.0625 17.1624 14.507 16.0893 15.2981 15.2981C16.0893 14.507 17.1624 14.0625 18.2812 14.0625Z" fill="white" fill-opacity="0.7"/>
</g>
<defs>
<clipPath id="clip0_13_15">
<rect width="45" height="45" fill="white"/>
</clipPath>
</defs>
</svg>
