<svg width="44" height="42" viewBox="0 0 44 42" fill="none" xmlns="http://www.w3.org/2000/svg">
<path fill-rule="evenodd" clip-rule="evenodd" d="M1.0375 1.14375C1.32779 0.998241 1.67263 0.882794 2.05229 0.804024C2.43195 0.725254 2.83895 0.684708 3.25 0.684708C3.66105 0.684708 4.06805 0.725254 4.44771 0.804024C4.82737 0.882794 5.17222 0.998241 5.4625 1.14375L42.9625 19.8937C43.2535 20.0389 43.4844 20.2113 43.642 20.4011C43.7995 20.591 43.8806 20.7945 43.8806 21C43.8806 21.2055 43.7995 21.409 43.642 21.5989C43.4844 21.7887 43.2535 21.9611 42.9625 22.1063L5.4625 40.8563C4.87571 41.1496 4.07985 41.3145 3.25 41.3145C2.42015 41.3145 1.62429 41.1496 1.0375 40.8563C0.450708 40.5629 0.121051 40.1649 0.121051 39.75C0.121051 39.3351 0.450708 38.9371 1.0375 38.6437L36.3313 21L1.0375 3.35625C0.746479 3.21111 0.515586 3.03868 0.358045 2.84886C0.200505 2.65903 0.119415 2.45552 0.119415 2.25C0.119415 2.04448 0.200505 1.84097 0.358045 1.65115C0.515586 1.46132 0.746479 1.28889 1.0375 1.14375Z" fill="#5CBEFF"/>
</svg>
